<?xml version="1.0" encoding="iso-8859-1"?>
<!-- Generator: Adobe Illustrator 19.0.0, SVG Export Plug-In . SVG Version: 6.00 Build 0)  -->
<svg version="1.1" id="Capa_1" xmlns="http://www.w3.org/2000/svg" xmlns:xlink="http://www.w3.org/1999/xlink" x="0px" y="0px"
	 viewBox="0 0 512 512" style="enable-background:new 0 0 512 512;" xml:space="preserve">
<g>
	<g>
		<path d="M490.667,320h-64v-53.333c0-5.896-4.771-10.667-10.667-10.667H288v-10.667c0-5.896-4.771-10.667-10.667-10.667h-10.667
			v-64h106.667c17.646,0,32-14.354,32-32V96c0-17.646-14.354-32-32-32h-32V10.667C341.333,4.771,336.563,0,330.667,0
			C324.771,0,320,4.771,320,10.667V64H138.667c-17.646,0-32,14.354-32,32v42.667c0,17.646,14.354,32,32,32h106.667v64h-10.667
			c-5.896,0-10.667,4.771-10.667,10.667V256H96c-5.896,0-10.667,4.771-10.667,10.667V320h-64C9.573,320,0,329.573,0,341.333V448
			c0,11.76,9.573,21.333,21.333,21.333h64v21.333H64c-5.896,0-10.667,4.771-10.667,10.667C53.333,507.229,58.104,512,64,512h64
			c5.896,0,10.667-4.771,10.667-10.667c0-5.896-4.771-10.667-10.667-10.667h-21.333v-21.333h64c11.76,0,21.333-9.573,21.333-21.333
			V341.333c0-11.76-9.573-21.333-21.333-21.333h-64v-42.667H224V288c0,5.896,4.771,10.667,10.667,10.667h42.667
			c5.896,0,10.667-4.771,10.667-10.667v-10.667h117.333V320h-64c-11.76,0-21.333,9.573-21.333,21.333V448
			c0,11.76,9.573,21.333,21.333,21.333h64v21.333H384c-5.896,0-10.667,4.771-10.667,10.667c0,5.896,4.771,10.667,10.667,10.667h64
			c5.896,0,10.667-4.771,10.667-10.667c0-5.896-4.771-10.667-10.667-10.667h-21.333v-21.333h64c11.76,0,21.333-9.573,21.333-21.333
			V341.333C512,329.573,502.427,320,490.667,320z M352,106.667c5.891,0,10.667,4.775,10.667,10.667
			c0,5.891-4.776,10.667-10.667,10.667s-10.667-4.776-10.667-10.667C341.333,111.441,346.109,106.667,352,106.667z M309.333,106.667
			c5.891,0,10.667,4.775,10.667,10.667c0,5.891-4.776,10.667-10.667,10.667s-10.667-4.776-10.667-10.667
			C298.667,111.441,303.443,106.667,309.333,106.667z M170.667,341.333v85.333H21.333v-85.333H170.667z M490.667,426.667H341.333
			v-85.333h149.333V426.667z"/>
	</g>
</g>
<g>
</g>
<g>
</g>
<g>
</g>
<g>
</g>
<g>
</g>
<g>
</g>
<g>
</g>
<g>
</g>
<g>
</g>
<g>
</g>
<g>
</g>
<g>
</g>
<g>
</g>
<g>
</g>
<g>
</g>
</svg>
