<svg id="icons" enable-background="new 0 0 64 64" height="512" viewBox="0 0 64 64" width="512" xmlns="http://www.w3.org/2000/svg"><path d="m15.501 41.004c1.93 0 3.5-1.57 3.5-3.5s-1.57-3.5-3.5-3.5-3.5 1.57-3.5 3.5 1.57 3.5 3.5 3.5zm0-5c.827 0 1.5.673 1.5 1.5s-.673 1.5-1.5 1.5-1.5-.673-1.5-1.5.673-1.5 1.5-1.5z"/><path d="m57 63v-4c0-.553-.447-1-1-1-.552 0-1-.448-1-1 0-.553-.447-1-1-1h-44c-.553 0-1 .447-1 1 0 .552-.448 1-1 1-.553 0-1 .447-1 1v4c0 .553.447 1 1 1s1-.447 1-1v-3.185c.848-.302 1.514-.968 1.815-1.815h42.369c.302.848.968 1.514 1.815 1.815v3.185c0 .553.447 1 1 1s1.001-.447 1.001-1z"/><path d="m1 53h1v10c0 .553.447 1 1 1s1-.447 1-1v-10h56v10c0 .553.447 1 1 1s1-.447 1-1v-10h1c.553 0 1-.447 1-1v-4c0-.553-.447-1-1-1h-1v-6c0-3.859-3.141-7-7-7 0 0 0 0-.001 0l-2.999.002v-1.625c3.58-2.078 5.999-5.943 6-10.372 0-.001 0-.001 0-.001v-9.004c0-2.967-2.167-5.432-5-5.91v-3.09c0-.553-.447-1-1-1h-8c-.005 0-.009.003-.013.003-5.508.007-9.987 4.489-9.987 9.997v9.002c0 4.43 2.419 8.297 6 10.375v1.625l-2.999-.002c-.001 0-.001 0-.001 0-3.859 0-7 3.141-7 7v2.004h-.999v-14c0-1.654-1.346-3-3-3h-21c-1.654 0-3 1.346-3 3v16.998c0 .352.072.685.184.998h-1.185c-.553 0-1 .447-1 1v4c0 .553.447 1 1 1zm43-47.998c.004 0 .006-.002.01-.002h6.99v3c0 .553.447 1 1 1 2.206 0 4 1.794 4 4v2.586l-1.293-1.293c-.014-.014-.031-.018-.045-.029-.053-.048-.111-.08-.171-.114-.055-.031-.105-.065-.163-.086-.06-.021-.12-.025-.182-.035-.065-.01-.128-.022-.193-.02-.061.003-.117.021-.177.034-.067.017-.134.03-.198.061-.017.008-.035.007-.052.016-.035.019-3.539 1.88-7.526 1.88-3.968 0-7.492-1.862-7.527-1.881-.017-.009-.034-.008-.051-.016-.063-.029-.129-.044-.197-.06-.061-.015-.119-.033-.182-.035-.062-.003-.12.01-.182.019-.065.009-.13.015-.192.037-.056.02-.105.054-.158.084-.061.035-.12.067-.173.115-.014.012-.031.016-.045.029l-1.293 1.294v-2.586c0-4.41 3.589-7.998 8-7.998zm-8 17v-3.588l2.204-2.204c1.309.596 4.356 1.79 7.796 1.79s6.487-1.194 7.796-1.79l2.204 2.204v3.588c0 5.513-4.486 9.998-10 9.998s-10-4.485-10-9.998zm10 11.998c1.404 0 2.747-.255 4-.7v1.288l-1.27 1.269-2.414-.805c-.036-.012-.072-.006-.109-.014-.068-.015-.135-.025-.207-.025-.071 0-.138.011-.207.025-.036.008-.072.001-.109.014l-2.414.805-1.27-1.269v-1.288c1.253.445 2.596.7 4 .7zm-14 7c0-2.757 2.243-5 5-5l3.586.002 1.707 1.705c.016.016.037.021.054.035.065.059.137.104.216.144.032.016.062.035.095.048.109.04.223.066.342.066.104 0 .211-.017.316-.052l2.684-.894 2.684.895c.105.034.212.051.316.051.119 0 .233-.026.343-.066.034-.013.063-.032.095-.048.079-.039.15-.085.216-.144.017-.015.038-.02.054-.035l1.707-1.705 3.585-.002c2.757 0 5 2.243 5 5v6h-21.183c.111-.313.183-.646.183-.996v-2c0-.553-.447-1-1-1h-6zm5 4.004v1c0 .545-.438.985-.98.996h-7.202c.11-.312.182-.642.182-.99 0-.003.002-.005.002-.008v-.998zm-31.999-17h21c.552 0 1 .448 1 1v14.995c0 .002-.001.003-.001.005s.001.003.001.005v1.99c0 .002-.001.003-.001.005 0 .545-.438.985-.98.996h-21.029c-.547-.006-.99-.449-.99-.998v-16.998c0-.552.448-1 1-1zm-3.001 20.996h1.99c.004 0 .006.002.01.002h20.989c.004 0 .007.002.01.002h11.001c.014 0 .025-.004.039-.004h24.941c.007 0 .013.004.02.004s.013-.004.02-.004h.98v2h-60z"/><path d="m46.03 46c.552 0 1-.447 1-1s-.448-1-1-1h-.01c-.552 0-.994.447-.994 1s.452 1 1.004 1z"/><path d="m46.03 42c.552 0 1-.447 1-1s-.448-1-1-1h-.01c-.552 0-.994.447-.994 1s.452 1 1.004 1z"/><path d="m14.533 22.947.76.76c.187.188.442.293.707.293.266 0 .52-.105.707-.293l.915-.916c5.454-1.015 9.378-5.711 9.378-11.291 0-6.341-5.159-11.5-11.5-11.5s-11.5 5.159-11.5 11.5c0 5.998 4.596 10.953 10.533 11.447zm.967-20.947c5.238 0 9.5 4.262 9.5 9.5 0 4.7-3.371 8.642-8.016 9.371-.209.033-.402.132-.552.281l-.432.434-.318-.318c-.176-.176-.41-.279-.657-.292-5.061-.251-9.025-4.413-9.025-9.476 0-5.238 4.262-9.5 9.5-9.5z"/><path d="m18.793 14.695c.195.195.451.293.707.293s.512-.098.707-.293l2.488-2.488c.004-.004.008-.004.012-.008.196-.195.293-.452.293-.709s-.097-.513-.293-.709c-.004-.004-.008-.004-.012-.008l-2.488-2.49c-.391-.391-1.023-.391-1.414 0-.391.39-.391 1.023 0 1.414l1.791 1.793-1.791 1.791c-.391.391-.391 1.024 0 1.414z"/><path d="m10.793 14.695c.195.195.451.293.707.293s.512-.098.707-.293c.391-.391.391-1.023 0-1.414l-1.791-1.791 1.791-1.793c.391-.391.391-1.024 0-1.414-.391-.391-1.023-.391-1.414 0l-2.488 2.49c-.004.004-.008.004-.012.008-.196.197-.293.452-.293.709s.097.514.293.709c.004.004.008.004.012.008z"/><path d="m13.685 16.937c.105.035.212.052.316.052.419 0 .81-.265.948-.684l3-9.004c.175-.524-.108-1.091-.632-1.265-.528-.177-1.092.108-1.265.632l-3 9.004c-.174.524.109 1.091.633 1.265z"/></svg>