<?xml version="1.0" ?><!DOCTYPE svg  PUBLIC '-//W3C//DTD SVG 1.1//EN'  'http://www.w3.org/Graphics/SVG/1.1/DTD/svg11.dtd'><svg enable-background="new 0 0 100 100" height="100px" id="Layer_1" version="1.1" viewBox="0 0 100 100" width="100px" xml:space="preserve" xmlns="http://www.w3.org/2000/svg" xmlns:xlink="http://www.w3.org/1999/xlink"><g><defs><rect height="100" id="SVGID_1_" width="100"/></defs><path d="M5,50c0,24.855,20.145,45,45,45c24.85,0,45-20.145,45-45C95,25.151,74.85,5,50,5   C25.146,5,5,25.151,5,50 M8.467,50c0-6.021,1.297-11.735,3.598-16.903l19.811,54.278C18.024,80.65,8.467,66.438,8.467,50    M50,91.531c-4.077,0-8.015-0.594-11.733-1.687L50.73,53.639l12.766,34.971c0.083,0.207,0.186,0.39,0.293,0.565   C59.477,90.699,54.833,91.531,50,91.531 M83.564,49.221c2.369-5.925,3.162-10.662,3.162-14.874c0-1.529-0.103-2.948-0.287-4.273   c3.242,5.919,5.086,12.704,5.086,19.927c0,15.324-8.301,28.698-20.645,35.894L83.564,49.221z M74.609,36.449   c1.576,2.765,3.427,6.32,3.427,11.455c0,3.557-1.058,8.027-3.161,13.428L70.73,75.168L55.721,30.53   c2.506-0.136,4.752-0.396,4.752-0.396c2.238-0.266,1.971-3.549-0.261-3.426c0,0-6.729,0.531-11.071,0.531   c-4.082,0-10.936-0.531-10.936-0.531c-2.24-0.123-2.499,3.296-0.266,3.426c0,0,2.123,0.26,4.361,0.396l6.465,17.729l-9.086,27.251   L24.55,30.53c2.506-0.136,4.758-0.396,4.758-0.396c2.239-0.266,1.966-3.549-0.266-3.426c0,0-6.725,0.531-11.072,0.531   c-0.778,0-1.694-0.02-2.67-0.048C22.729,15.916,35.495,8.469,50,8.469c10.812,0,20.657,4.136,28.043,10.908   c-0.178-0.014-0.355-0.035-0.533-0.035c-4.088,0-6.977,3.551-6.977,7.367C70.534,30.135,72.507,33.03,74.609,36.449"/></g></svg>